# xmcd CD database file
#
# Track frame offsets:
#	150
#	30755
#	60905
#	92990
#	124293
#	147462
#	183259
#	205772
#	229278
#
# Disc length: 3428 seconds
#
# Revision: 0
# Processed by: cddbd v1.5.2PL0 Copyright (c) Steve Scherf et al.
# Submitted via: CDex 1.70beta2
#
DISCID=760d6209
DTITLE=Dr. X Solomon - Paradigm
DYEAR=2009
DGENRE=Jazz
TTITLE0=Dr. X Solomon - Unlimited Mentality
TTITLE1=Dr. X Solomon - F.P.H.
TTITLE2=Dr. X Solomon - Okani Moochi
TTITLE3=Dr. X Solomon - P.I.M.P. WANNA DANCE 
TTITLE4=Dr. X Solomon - Holdin' On Featuring "Jamosa"
TTITLE5=Dr. X Solomon - Free 2 B Spirit N Me
TTITLE6=Dr. X Solomon - Everything
TTITLE7=Dr. X Solomon - U Ain't No MC
TTITLE8=Dr. X Solomon - Joy Within
EXTD=YEAR: 2009
EXTT0=
EXTT1=
EXTT2=
EXTT3=
EXTT4=
EXTT5=
EXTT6=
EXTT7=
EXTT8=
PLAYORDER=
